HIERARCHY
ROOT Pelvis
{
	OFFSET 0.000000 0.000000 0.000000
	CHANNELS 6 Xposition Yposition Zposition Xrotation Yrotation Zrotation
	JOINT LeftUpLeg_virtual
	{
		OFFSET 0.000000 0.000000 0.000000
		CHANNELS 3 Xrotation Yrotation Zrotation
		JOINT LeftUpLeg
		{
			OFFSET 18.735201 -5.666702 -4.541200
			CHANNELS 3 Xrotation Yrotation Zrotation
			JOINT LeftLeg
			{
				OFFSET -0.021200 -31.938179 0.493100
				CHANNELS 3 Xrotation Yrotation Zrotation
				JOINT LeftFoot
				{
					OFFSET 0.021200 -31.938179 -4.336299
					CHANNELS 3 Xrotation Yrotation Zrotation
					JOINT LeftToeBase
					{
						OFFSET 0.943001 -26.722000 15.023500
						CHANNELS 3 Xrotation Yrotation Zrotation
						End Site
						{
							OFFSET 0 0 0
						}
					}
				}
			}
		}
	}
	JOINT RightUpLeg_virtual
	{
		OFFSET 0.000000 0.000000 0.000000
		CHANNELS 3 Xrotation Yrotation Zrotation
		JOINT RightUpLeg
		{
			OFFSET -18.735201 -5.666702 -4.541200
			CHANNELS 3 Xrotation Yrotation Zrotation
			JOINT RightLeg
			{
				OFFSET 0.018946 -31.938133 0.493100
				CHANNELS 3 Xrotation Yrotation Zrotation
				JOINT RightFoot
				{
					OFFSET -0.018946 -31.938126 -4.336299
					CHANNELS 3 Xrotation Yrotation Zrotation
					JOINT RightToeBase
					{
						OFFSET -0.943001 -26.722004 15.023500
						CHANNELS 3 Xrotation Yrotation Zrotation
						End Site
						{
							OFFSET 0 0 0
						}
					}
				}
			}
		}
	}
	JOINT Hips_virtual
	{
		OFFSET 0.000000 0.000000 0.000000
		CHANNELS 3 Xrotation Yrotation Zrotation
		JOINT Hips
		{
			OFFSET -0.000000 -0.000000 -0.000000
			CHANNELS 3 Xrotation Yrotation Zrotation
			JOINT Spine
			{
				OFFSET 0.000000 10.199997 -0.299500
				CHANNELS 3 Xrotation Yrotation Zrotation
				JOINT Spine1
				{
					OFFSET 0.000000 11.900002 -1.516600
					CHANNELS 3 Xrotation Yrotation Zrotation
					JOINT Spine2
					{
						OFFSET 0.000000 13.600006 -2.842500
						CHANNELS 3 Xrotation Yrotation Zrotation
						JOINT Neck_virtual
						{
							OFFSET 0.000000 0.000000 0.000000
							CHANNELS 3 Xrotation Yrotation Zrotation
							JOINT Neck
							{
								OFFSET 0.000000 9.624100 -2.890100
								CHANNELS 3 Xrotation Yrotation Zrotation
								JOINT Head
								{
									OFFSET 0.000000 14.068802 -1.351900
									CHANNELS 3 Xrotation Yrotation Zrotation
									End Site
									{
										OFFSET 0 0 0
									}
								}
							}
						}
						JOINT LeftShoulder_virtual
						{
							OFFSET 0.000000 0.000000 0.000000
							CHANNELS 3 Xrotation Yrotation Zrotation
							JOINT LeftShoulder
							{
								OFFSET 15.263000 10.923401 -0.547700
								CHANNELS 3 Xrotation Yrotation Zrotation
								JOINT LeftArm
								{
									OFFSET 25.438599 -2.830597 -13.032500
									CHANNELS 3 Xrotation Yrotation Zrotation
									JOINT LeftForeArm
									{
										OFFSET 29.960503 0.000000 0.000000
										CHANNELS 3 Xrotation Yrotation Zrotation
										JOINT LeftHand
										{
											OFFSET 27.849251 0.000000 0.000000
											CHANNELS 3 Xrotation Yrotation Zrotation
											End Site
											{
												OFFSET 0 0 0
											}
										}
									}
								}
							}
						}
						JOINT RightShoulder_virtual
						{
							OFFSET 0.000000 0.000000 0.000000
							CHANNELS 3 Xrotation Yrotation Zrotation
							JOINT RightShoulder
							{
								OFFSET -15.263000 10.923401 -0.547700
								CHANNELS 3 Xrotation Yrotation Zrotation
								JOINT RightArm
								{
									OFFSET -25.438599 -2.830597 -13.032500
									CHANNELS 3 Xrotation Yrotation Zrotation
									JOINT RightForeArm
									{
										OFFSET -29.960503 0.000000 0.000000
										CHANNELS 3 Xrotation Yrotation Zrotation
										JOINT RightHand
										{
											OFFSET -27.849251 0.000000 0.000000
											CHANNELS 3 Xrotation Yrotation Zrotation
											End Site
											{
												OFFSET 0 0 0
											}
										}
									}
								}
							}
						}
					}
				}
			}
		}
	}
}
MOTION
Frames: 13
Frame Time: 0.03333333
8.699769 188.967972 64.929604 0.000000 0.000000 0.000000 2.710960 18.241301 1.933789 -41.657013 18.998815 16.654984 63.954982 -7.734125 -3.793006 12.316593 0.282797 -21.653404 0.000000 0.000000 0.000000 3.717465 18.342907 0.193839 -60.993664 0.279544 -25.261253 23.897954 11.899961 3.107161 11.689421 18.699333 35.760149 0.000000 0.000000 0.000000 3.449859 18.230731 2.483185 1.449435 0.365815 -1.755847 8.515612 -0.774261 -5.621828 14.839269 -3.746947 0.802306 0.000000 0.000000 0.000000 12.672823 -3.412554 0.974456 -2.557946 -0.173740 -2.504171 0.000000 0.000000 0.000000 13.918702 -3.469375 1.166427 -0.512307 11.734415 6.140259 -114.369988 -56.954878 -123.614075 -103.395861 -88.942969 -103.245413 0.000000 0.000000 0.000000 14.458211 -3.142472 1.169175 2.661843 10.130082 1.815121 -34.479492 42.053092 65.729485 1.569412 55.237126 -0.516164 0.000000 0.000000 0.000000 
9.353001 184.255661 69.340500 0.000000 0.000000 0.000000 0.754475 18.336162 2.538119 -40.630941 19.134126 16.877606 61.724795 -7.027221 -4.549135 16.858570 0.055761 -25.126150 0.000000 0.000000 0.000000 2.339185 18.560708 0.822936 -58.256446 -1.005420 -25.454877 21.103456 12.590234 3.418081 15.913504 21.994591 34.396973 0.000000 0.000000 0.000000 1.636858 17.736652 3.034432 1.327009 0.625454 -1.462461 9.150875 -0.736804 -5.298468 14.886872 -3.166224 0.957802 0.000000 0.000000 0.000000 12.676864 -2.864077 1.168909 -2.837076 -0.271930 -2.480712 0.000000 0.000000 0.000000 14.071227 -2.999395 1.219970 -0.551782 11.753168 4.898708 -111.702833 -56.680981 -120.951558 -100.798668 -88.971301 -100.340847 0.000000 0.000000 0.000000 14.822610 -2.557259 1.299465 2.452975 9.699488 1.362594 -37.408294 42.029057 66.176350 1.234125 53.951282 -0.669702 0.000000 0.000000 0.000000 
9.933300 178.773224 74.183876 0.000000 0.000000 0.000000 -0.197790 18.028127 2.686726 -38.656176 18.568872 16.499830 57.768032 -5.831463 -4.640453 19.336423 0.509694 -26.838390 0.000000 0.000000 0.000000 1.755429 18.397965 1.189134 -55.461498 -2.264983 -24.932117 19.775582 12.440793 3.202420 19.635730 23.505763 31.652268 0.000000 0.000000 0.000000 0.545979 17.016298 3.146622 1.048086 0.929762 -1.273970 9.425438 -0.619381 -4.623149 14.722036 -2.489067 0.925510 0.000000 0.000000 0.000000 12.706081 -2.276719 1.181841 -2.809625 -0.334714 -2.434642 0.000000 0.000000 0.000000 13.879426 -2.414427 1.069134 -0.565766 11.450524 4.463763 -108.074650 -55.697283 -117.413506 -21.567108 -87.409127 -20.825148 0.000000 0.000000 0.000000 14.793201 -1.971123 1.241533 2.232259 9.160261 0.769166 -38.665120 41.322945 66.549702 0.777626 54.591988 -0.636724 0.000000 0.000000 0.000000 
10.468492 172.493988 79.421997 0.000000 0.000000 0.000000 -0.392791 17.098496 2.682300 -36.119563 17.849642 16.029762 52.346556 -4.638594 -4.297529 18.636350 1.418758 -27.103907 0.000000 0.000000 0.000000 1.459533 18.067884 1.481962 -52.533574 -3.515292 -23.954845 20.534491 11.254908 2.436941 21.873242 22.661086 28.235292 0.000000 0.000000 0.000000 -0.097936 15.904994 3.087362 0.895120 0.841564 -0.963661 9.380505 -0.387761 -3.721229 14.297143 -1.721440 0.581982 0.000000 0.000000 0.000000 12.791856 -1.636109 0.879050 -2.431173 -0.360329 -2.368499 0.000000 0.000000 0.000000 13.356370 -1.663586 0.635753 -0.631860 10.863331 5.288265 -103.694532 -54.318510 -113.197524 -7.002304 -82.503911 -6.062128 0.000000 0.000000 0.000000 14.334653 -1.368161 0.842629 2.034108 8.547884 0.023112 -38.454177 39.938274 67.435223 0.439128 57.670204 -0.565831 0.000000 0.000000 0.000000 
10.919636 165.018829 85.010330 0.000000 0.000000 0.000000 -0.577247 15.963416 2.865768 -33.804730 17.976435 16.135253 45.841648 -3.272291 -4.187998 16.436905 2.440703 -26.130414 0.000000 0.000000 0.000000 0.756137 17.210564 1.960828 -49.216694 -4.938762 -22.724680 22.321823 9.331484 1.558351 21.975843 20.046853 25.175867 0.000000 0.000000 0.000000 -0.759002 14.188045 3.159853 1.017011 0.765926 -0.787383 9.142674 -0.058822 -2.847571 13.590434 -0.954481 -0.025810 0.000000 0.000000 0.000000 12.798989 -0.981736 0.234830 -1.834531 -0.361091 -2.291389 0.000000 0.000000 0.000000 12.469490 -0.876039 -0.039792 -0.810272 10.172115 7.400759 -99.361863 -53.231721 -109.133015 -3.366570 -76.184866 -2.362031 0.000000 0.000000 0.000000 13.571091 -0.745693 0.133690 1.870641 7.755961 -0.835118 -37.524714 37.918881 69.503636 0.509155 62.349580 -0.701456 0.000000 0.000000 0.000000 
11.409166 156.329010 90.899521 0.000000 0.000000 0.000000 -1.095138 14.612732 3.423747 -32.126006 19.201316 16.791329 38.999011 -1.946890 -4.215218 14.660883 2.902196 -24.349392 0.000000 0.000000 0.000000 -0.770757 15.905613 2.703648 -45.040310 -6.673906 -21.474939 22.898052 7.041007 0.811340 20.634990 16.760668 23.270198 0.000000 0.000000 0.000000 -1.618435 12.151744 3.540063 1.013721 0.594145 -0.573614 8.775457 0.199878 -2.199037 12.634687 -0.340976 -0.680691 0.000000 0.000000 0.000000 12.420939 -0.426612 -0.520249 -1.148319 -0.305389 -2.200881 0.000000 0.000000 0.000000 11.263255 -0.193334 -0.750897 -1.034753 9.319456 10.003362 -94.703257 -52.577000 -105.052496 -1.624745 -71.115998 -0.704998 0.000000 0.000000 0.000000 12.499585 -0.222402 -0.691158 1.778541 6.928285 -1.585660 -36.299440 35.412823 72.526125 1.118910 66.589481 -1.190377 0.000000 0.000000 0.000000 
11.924847 146.245956 96.515823 0.000000 0.000000 0.000000 -1.894781 13.017474 3.984355 -30.736077 19.947339 17.270133 32.594114 -1.227798 -3.918180 15.476585 2.025167 -22.538560 0.000000 0.000000 0.000000 -2.926882 14.440886 3.396082 -39.440296 -8.036765 -19.564915 20.586976 5.393382 0.062658 18.990048 14.468187 23.388296 0.000000 0.000000 0.000000 -2.878949 10.445448 3.913106 0.545561 0.243456 -0.550155 8.326208 0.210042 -1.862084 11.408765 0.073491 -1.086794 0.000000 0.000000 0.000000 11.635215 0.002744 -1.020214 -0.559444 -0.218511 -2.125914 0.000000 0.000000 0.000000 9.947814 0.333182 -1.194347 -1.279386 8.553682 12.103050 -89.304450 -52.698550 -101.325706 -0.442425 -69.654870 0.253808 0.000000 0.000000 0.000000 11.338456 0.210863 -1.312007 1.708077 6.352271 -1.992331 -34.929283 32.656862 75.561918 2.209662 68.571630 -2.126913 0.000000 0.000000 0.000000 
12.390210 134.785767 102.202026 0.000000 0.000000 0.000000 -2.782610 11.431368 3.845681 -30.131123 19.403113 17.185820 28.341646 -1.495335 -3.052488 18.560588 -0.260417 -20.952480 0.000000 0.000000 0.000000 -4.927495 12.901882 3.307516 -33.701291 -8.365845 -16.882880 16.826077 5.198080 -0.560014 18.036033 14.047387 25.304217 0.000000 0.000000 0.000000 -4.495990 9.571411 3.616151 0.067150 0.523691 -0.820000 7.856423 -0.024423 -1.701596 10.238861 0.346722 -0.903250 0.000000 0.000000 0.000000 10.564045 0.360616 -0.881230 -0.237135 -0.095316 -2.077996 0.000000 0.000000 0.000000 8.824329 0.680337 -1.027781 -1.470701 8.151854 12.888440 -83.917261 -53.063443 -98.509148 0.811033 -71.808443 1.232057 0.000000 0.000000 0.000000 10.394734 0.560507 -1.333765 1.703007 6.390691 -1.807490 -33.240338 30.185338 77.536731 3.025148 67.294651 -2.709586 0.000000 0.000000 0.000000 
12.497059 122.415314 107.944122 0.000000 0.000000 0.000000 -3.421638 11.049235 2.202745 -31.632723 17.102531 17.180692 28.002630 -2.831895 -1.605628 21.016204 -3.513849 -19.382163 0.000000 0.000000 0.000000 -6.186127 12.403890 1.578621 -30.027854 -7.917088 -13.829565 15.515070 5.987409 -0.992557 18.026438 14.366994 26.993673 0.000000 0.000000 0.000000 -5.772656 10.327828 1.901722 -0.906553 1.001743 -0.990569 7.461139 -0.351667 -1.433919 9.546048 0.717614 0.071201 0.000000 0.000000 0.000000 9.720844 0.782388 0.131469 -0.243450 0.028979 -2.087163 0.000000 0.000000 0.000000 8.305585 1.108251 -0.058452 -1.607376 8.317465 11.890977 -79.735150 -52.667930 -96.750688 2.378811 -76.239808 2.540087 0.000000 0.000000 0.000000 9.958010 0.982066 -0.509990 1.752521 7.408501 -0.926920 -31.542510 28.401977 77.784694 2.885397 62.714510 -2.340098 0.000000 0.000000 0.000000 
12.316821 109.516937 113.078377 0.000000 0.000000 0.000000 -3.570069 11.918331 -1.666513 -37.611103 12.734904 18.112357 34.513533 -4.663129 0.368936 20.748933 -6.447144 -17.036228 0.000000 0.000000 0.000000 -6.125424 13.392390 -2.282329 -30.412264 -7.838455 -10.480605 20.449045 6.788196 -1.163456 17.931714 13.736771 26.375739 0.000000 0.000000 0.000000 -6.037174 12.520535 -1.853916 -1.361448 1.570404 -1.094706 7.374275 -0.520981 -0.855014 9.709426 1.503418 1.747766 0.000000 0.000000 0.000000 9.741826 1.522491 1.908936 -0.617576 0.134369 -2.192487 0.000000 0.000000 0.000000 8.755775 1.846724 1.656802 -1.706414 9.116014 9.607021 -78.765277 -51.056576 -96.513387 3.765288 -80.344594 3.790489 0.000000 0.000000 0.000000 10.446998 1.738093 1.142721 1.747427 9.406898 0.309419 -31.085294 27.411212 76.231174 2.220321 55.521809 -1.423089 0.000000 0.000000 0.000000 
11.862760 96.779633 117.245888 0.000000 0.000000 0.000000 -2.969810 13.670255 -7.585278 -50.440233 6.675968 20.319862 50.552573 -5.538360 2.699669 16.775945 -7.496686 -12.702477 0.000000 0.000000 0.000000 -4.233079 15.118935 -8.471956 -36.408590 -9.751056 -6.919568 33.277611 6.482325 -0.839955 15.158630 10.557074 22.416850 0.000000 0.000000 0.000000 -4.614164 15.368870 -7.692792 -1.118266 2.003195 -1.028894 7.675937 -0.363809 0.160660 11.091239 2.895785 3.772611 0.000000 0.000000 0.000000 11.011745 2.829241 4.056455 -1.291577 0.202120 -2.372085 0.000000 0.000000 0.000000 10.357114 3.133703 3.755455 -1.764220 10.219547 6.753405 -81.962673 -47.710862 -96.496202 3.698115 -81.960679 3.715330 0.000000 0.000000 0.000000 12.000604 3.059829 3.272039 1.710847 11.915757 1.304063 -33.734625 27.242206 73.182171 1.434646 46.465876 -0.423128 0.000000 0.000000 0.000000 
11.299583 84.818466 120.185051 0.000000 0.000000 0.000000 -1.204361 15.282634 -14.583349 -69.490345 -1.015945 22.602585 73.997873 -4.816053 4.495532 8.099600 -6.948789 -6.570458 0.000000 0.000000 0.000000 -0.936396 16.478620 -16.160960 -48.097386 -14.381998 -4.283474 52.825687 4.835936 0.163674 8.205292 5.451459 15.421445 0.000000 0.000000 0.000000 -1.303419 17.792448 -14.842078 -0.479124 1.691722 -1.020392 8.398926 0.183654 1.533942 13.543208 4.978588 5.570444 0.000000 0.000000 0.000000 13.609655 4.750876 5.901882 -2.158266 0.215659 -2.607411 0.000000 0.000000 0.000000 13.012212 5.084325 5.666961 -1.850876 11.378118 4.249470 -87.859811 -43.422125 -94.587315 1.879777 -80.371280 2.037905 0.000000 0.000000 0.000000 14.513740 5.048024 5.294472 1.649908 14.425136 1.456777 -41.347773 27.940023 69.234042 0.755280 35.971061 0.310008 0.000000 0.000000 0.000000 
10.932349 73.960533 121.944748 0.000000 0.000000 0.000000 1.913369 15.139536 -20.905013 -91.254442 -9.130480 23.020519 97.521673 -3.966471 4.986090 -3.140741 -6.832526 -0.594090 0.000000 0.000000 0.000000 2.957360 16.138391 -23.224434 -64.582485 -19.860144 -4.090562 74.952816 3.291503 1.557133 -1.097280 1.518580 7.373713 0.000000 0.000000 0.000000 3.108017 18.359297 -21.633328 0.705591 1.008824 -0.952038 9.454228 1.079593 2.955200 16.706052 7.445512 6.578682 0.000000 0.000000 0.000000 17.100620 7.120278 6.851057 -3.056645 0.199896 -2.790884 0.000000 0.000000 0.000000 16.478405 7.438756 6.797885 -1.932700 12.164347 2.737413 -93.890021 -39.423015 -89.641698 0.011883 -74.680523 0.433708 0.000000 0.000000 0.000000 17.759993 7.489014 6.564950 1.700799 16.321172 0.433067 -53.733911 29.524842 64.979285 0.327295 25.206530 0.611559 0.000000 0.000000 0.000000 
